<svg xmlns="http://www.w3.org/2000/svg" version="1.1" xmlns:xlink="http://www.w3.org/1999/xlink" xmlns:svgjs="http://svgjs.dev/svgjs" width="1500" height="1500" viewBox="0 0 1500 1500"><g transform="matrix(1,0,0,1,0,0.0008294470351302152)"><svg viewBox="0 0 280 280" data-background-color="#d2d6dc" preserveAspectRatio="xMidYMid meet" height="1500" width="1500" xmlns="http://www.w3.org/2000/svg" xmlns:xlink="http://www.w3.org/1999/xlink"><g id="tight-bounds" transform="matrix(1,0,0,1,0,-0.00015483011321748563)"><svg viewBox="0 0 280 280" height="280" width="280"><g><svg viewBox="0 0 280 280" height="280" width="280"><g transform="matrix(1,0,0,1,60.80404050710668,132.85072205339122)"><svg viewBox="0 0 158.39191898578665 14.298555893217566" height="14.298555893217566" width="158.39191898578665"><g><svg viewBox="0 0 184.7057773195682 16.6739938357653" height="14.298555893217566" width="158.39191898578665"><g><rect width="1.0880448420195032" height="14.47814225970938" x="22.377528565009428" y="1.0979257880279611" fill="#6b7280" opacity="1" stroke-width="0" stroke="transparent" fill-opacity="1" class="rect-qz-0" data-fill-palette-color="primary" rx="1%" id="qz-0" data-palette-color="#6b7280"></rect></g><g transform="matrix(1,0,0,1,26.313858333781557,2.3044376430037428)"><svg viewBox="0 0 158.39191898578665 12.065118549757816" height="12.065118549757816" width="158.39191898578665"><g id="textblocktransform"><svg viewBox="0 0 158.39191898578665 12.065118549757816" height="12.065118549757816" width="158.39191898578665" id="textblock"><g><svg viewBox="0 0 158.39191898578665 12.065118549757816" height="12.065118549757816" width="158.39191898578665"><g transform="matrix(1,0,0,1,0,0)"><svg width="158.39191898578665" viewBox="4 -32.4 425.32 32.4" height="12.065118549757816" data-palette-color="#6b7280"><path d="M31.3 0L4 0 4-29.4 35.1-29.4 35.1-24.6 10.6-24.6 10.6-17.7 29.3-17.7 29.3-12.75 10.6-12.75 10.6-4.8 35.3-4.8 37.3-0.55Q37.3-0.35 35.95-0.18 34.6 0 31.3 0L31.3 0ZM57.1 0L49.1 0 38.8-22.4 45.8-22.4 51.55-8.6 52.85-5 53.35-5 54.65-8.6 60.5-22.4 67.3-22.4 66.5-19.35 57.1 0ZM86.95 0L76.9 0Q74.4 0 73.05-0.65 71.7-1.3 71.12-2.3 70.55-3.3 70.42-4.4 70.3-5.5 70.3-6.4L70.3-6.4 70.3-16Q70.3-16.75 70.42-17.82 70.55-18.9 71.12-19.95 71.7-21 73.07-21.7 74.45-22.4 76.9-22.4L76.9-22.4 87.65-22.4Q90.95-22.4 92.82-21.78 94.7-21.15 95.47-19.75 96.25-18.35 96.25-16L96.25-16 96.25-8.6 87.5-8.6Q83-8.6 80.17-8.8 77.35-9 76.4-9.05L76.4-9.05 76.4-6.3Q76.35-4.3 78.8-4.3L78.8-4.3 81.35-4.3Q84.05-4.3 86.62-4.38 89.2-4.45 91.35-4.58 93.5-4.7 94.8-4.8L94.8-4.8 96.8-1.55Q96.8 0 86.95 0L86.95 0ZM76.4-16.1L76.4-12.9 90.15-12.9 90.15-16.1Q90.15-17.1 89.92-17.5 89.7-17.9 88.6-18 87.5-18.1 84.85-18.1L84.85-18.1 78.8-18.1Q76.4-18.1 76.4-16.1L76.4-16.1ZM107.89 0L101.79 0 101.79-22.4 105.89-22.4 107.89-21.4Q109.99-21.8 112.94-22.1 115.89-22.4 119.69-22.4L119.69-22.4 122.19-22.4Q124.69-22.4 126.04-21.7 127.39-21 127.97-19.95 128.54-18.9 128.67-17.82 128.79-16.75 128.79-16L128.79-16 128.79 0 122.69 0 122.69-16.1Q122.69-18.1 120.29-18.1L120.29-18.1 109.39-18.1Q108.44-18.1 108.17-17.93 107.89-17.75 107.89-17L107.89-17 107.89 0ZM144.79 0L143.24 0Q139.44 0 138.04-1.6 136.64-3.2 136.64-6.4L136.64-6.4 136.64-18.1 132.54-18.1 132.54-22.4 134.64-22.4Q135.59-22.4 136.02-22.7 136.44-23 136.64-23.9L136.64-23.9 137.64-29.25 142.74-29.25 142.74-22.4 153.14-22.4 153.14-18.1 142.74-18.1 142.74-6.35Q142.74-5.1 143.34-4.7 143.94-4.3 145.14-4.3L145.14-4.3 152.19-4.3 152.69-0.5Q151.64-0.35 149.49-0.18 147.34 0 144.79 0L144.79 0ZM191.34 0L174.74 0Q171.34 0 169.74-0.3 168.14-0.6 168.14-1L168.14-1 170.14-5.35Q171.29-5.15 175.86-4.98 180.44-4.8 188.44-4.8L188.44-4.8 189.39-4.8Q191.54-4.8 192.44-5.58 193.34-6.35 193.34-8.2L193.34-8.2 193.34-9.2Q193.34-10.95 192.61-11.7 191.89-12.45 189.39-12.45L189.39-12.45 177.79-12.45Q172.74-12.45 170.44-14.33 168.14-16.2 168.14-20.45L168.14-20.45 168.14-21.25Q168.14-23.45 168.96-25.3 169.79-27.15 171.79-28.28 173.79-29.4 177.29-29.4L177.29-29.4 190.89-29.4Q194.29-29.4 196.39-29.05 198.49-28.7 198.49-28.3L198.49-28.3 197.49-24.1Q196.19-24.25 191.59-24.43 186.99-24.6 179.24-24.6L179.24-24.6 178.69-24.65Q176.39-24.65 175.59-23.73 174.79-22.8 174.74-21.4L174.74-21.4 174.74-20.55Q174.74-18.9 175.66-18.07 176.59-17.25 178.74-17.25L178.74-17.25 189.84-17.25Q193.04-17.25 195.29-16.6 197.54-15.95 198.74-14.23 199.94-12.5 199.94-9.15L199.94-9.15 199.94-8.35Q199.94-4.6 198.01-2.3 196.09 0 191.34 0L191.34 0ZM222.08 0L212.03 0Q209.53 0 208.18-0.65 206.83-1.3 206.26-2.3 205.68-3.3 205.56-4.4 205.43-5.5 205.43-6.4L205.43-6.4 205.43-16Q205.43-16.75 205.56-17.82 205.68-18.9 206.26-19.95 206.83-21 208.21-21.7 209.58-22.4 212.03-22.4L212.03-22.4 218.98-22.4Q225.23-22.4 227.86-22.08 230.48-21.75 230.48-21.4L230.48-21.4 229.48-17.6Q228.08-17.7 225.93-17.82 223.78-17.95 221.31-18.03 218.83-18.1 216.48-18.1L216.48-18.1 213.93-18.1Q211.53-18.1 211.53-16.1L211.53-16.1 211.53-6.3Q211.48-4.3 213.93-4.3L213.93-4.3 216.48-4.3Q219.18-4.3 221.76-4.38 224.33-4.45 226.48-4.58 228.63-4.7 229.93-4.8L229.93-4.8 231.93-1.55Q231.93 0 222.08 0L222.08 0ZM241.53 0L235.43 0 235.43-32.4 241.53-32.4 241.53-21.4Q243.63-21.8 246.58-22.1 249.53-22.4 253.33-22.4L253.33-22.4 255.83-22.4Q258.33-22.4 259.68-21.7 261.03-21 261.61-19.95 262.18-18.9 262.31-17.82 262.43-16.75 262.43-16L262.43-16 262.43 0 256.33 0 256.33-16.1Q256.33-18.1 253.93-18.1L253.93-18.1 243.03-18.1Q242.08-18.1 241.81-17.93 241.53-17.75 241.53-17L241.53-17 241.53 0ZM284.33 0L274.28 0Q271.78 0 270.43-0.65 269.08-1.3 268.5-2.3 267.93-3.3 267.8-4.4 267.68-5.5 267.68-6.4L267.68-6.4 267.68-16Q267.68-16.75 267.8-17.82 267.93-18.9 268.5-19.95 269.08-21 270.45-21.7 271.83-22.4 274.28-22.4L274.28-22.4 285.03-22.4Q288.33-22.4 290.2-21.78 292.08-21.15 292.85-19.75 293.63-18.35 293.63-16L293.63-16 293.63-8.6 284.88-8.6Q280.38-8.6 277.55-8.8 274.73-9 273.78-9.05L273.78-9.05 273.78-6.3Q273.73-4.3 276.18-4.3L276.18-4.3 278.73-4.3Q281.43-4.3 284-4.38 286.58-4.45 288.73-4.58 290.88-4.7 292.18-4.8L292.18-4.8 294.18-1.55Q294.18 0 284.33 0L284.33 0ZM273.78-16.1L273.78-12.9 287.53-12.9 287.53-16.1Q287.53-17.1 287.3-17.5 287.08-17.9 285.98-18 284.88-18.1 282.23-18.1L282.23-18.1 276.18-18.1Q273.78-18.1 273.78-16.1L273.78-16.1ZM307.78 0L305.28 0Q302.78 0 301.43-0.65 300.08-1.3 299.5-2.3 298.93-3.3 298.8-4.4 298.68-5.5 298.68-6.4L298.68-6.4 298.68-16Q298.68-16.75 298.8-17.82 298.93-18.9 299.5-19.95 300.08-21 301.45-21.7 302.83-22.4 305.28-22.4L305.28-22.4 307.83-22.4Q312.43-22.4 315.25-22.23 318.08-22.05 319.58-21.85L319.58-21.85 319.58-31.7 325.68-31.7 325.68 0 321.58 0 319.63-1Q317.53-0.65 314.58-0.33 311.63 0 307.78 0L307.78 0ZM307.18-4.3L307.18-4.3 318.03-4.3Q319.08-4.3 319.33-4.55 319.58-4.8 319.58-5.8L319.58-5.8 319.58-17.75Q317.88-17.85 315.28-17.98 312.68-18.1 309.73-18.1L309.73-18.1 307.18-18.1Q304.78-18.1 304.78-16.1L304.78-16.1 304.78-6.3Q304.78-4.3 307.18-4.3ZM341.32 0L338.77 0Q336.32 0 334.95-0.65 333.57-1.3 333-2.3 332.42-3.3 332.3-4.4 332.17-5.5 332.17-6.4L332.17-6.4 332.17-22.4 338.27-22.4 338.27-6.3Q338.22-5.2 339-4.75 339.77-4.3 340.67-4.3L340.67-4.3 350.57-4.3Q351.67-4.3 351.87-4.5 352.07-4.7 352.07-5.8L352.07-5.8 352.07-22.4 358.17-22.4 358.17 0 354.07 0 352.17-1Q350.17-0.6 347.45-0.3 344.72 0 341.32 0L341.32 0ZM370.77 0L364.67 0 364.67-27.7 364.17-31.7 370.77-31.7 370.77 0ZM392.92 0L382.87 0Q380.37 0 379.02-0.65 377.67-1.3 377.09-2.3 376.52-3.3 376.39-4.4 376.27-5.5 376.27-6.4L376.27-6.4 376.27-16Q376.27-16.75 376.39-17.82 376.52-18.9 377.09-19.95 377.67-21 379.04-21.7 380.42-22.4 382.87-22.4L382.87-22.4 393.62-22.4Q396.92-22.4 398.79-21.78 400.67-21.15 401.44-19.75 402.22-18.35 402.22-16L402.22-16 402.22-8.6 393.47-8.6Q388.97-8.6 386.14-8.8 383.32-9 382.37-9.05L382.37-9.05 382.37-6.3Q382.32-4.3 384.77-4.3L384.77-4.3 387.32-4.3Q390.02-4.3 392.59-4.38 395.17-4.45 397.32-4.58 399.47-4.7 400.77-4.8L400.77-4.8 402.77-1.55Q402.77 0 392.92 0L392.92 0ZM382.37-16.1L382.37-12.9 396.12-12.9 396.12-16.1Q396.12-17.1 395.89-17.5 395.67-17.9 394.57-18 393.47-18.1 390.82-18.1L390.82-18.1 384.77-18.1Q382.37-18.1 382.37-16.1L382.37-16.1ZM413.87 0L407.77 0 407.77-22.4 411.87-22.4 413.77-21.4Q415.07-22.1 416.57-22.5 418.07-22.9 420.37-22.9L420.37-22.9Q424.02-22.9 426.29-22.1 428.57-21.3 429.32-20.9L429.32-20.9 427.57-16.55Q426.97-16.85 425.59-17.32 424.22-17.8 422.37-18.2 420.52-18.6 418.32-18.6L418.32-18.6 417.77-18.6Q415.37-18.6 414.64-17.65 413.92-16.7 413.87-14.5L413.87-14.5 413.87 0Z" opacity="1" transform="matrix(1,0,0,1,0,0)" fill="#6b7280" class="wordmark-text-0" data-fill-palette-color="primary" id="text-0"></path></svg></g></svg></g></svg></g></svg></g><g><svg viewBox="0 0 19.5292436382568 16.6739938357653" height="16.6739938357653" width="19.5292436382568"><g><svg xmlns="http://www.w3.org/2000/svg" xmlns:xlink="http://www.w3.org/1999/xlink" version="1.1" x="0" y="0" viewBox="17.584391981174054 22.399999999999995 64.65243177189271 55.20000000000002" enable-background="new 0 0 100 100" xml:space="preserve" height="16.6739938357653" width="19.5292436382568" class="icon-icon-0" data-fill-palette-color="accent" id="icon-0"><path d="M80.3 68.4C75.3 65.3 58 57.9 58 57.9l-1-5.2c2.1-2.1 4.2-7.6 4.4-10 0.2-2.4 0-9.6 0-9.6 0-6.3-5.1-10.7-11.5-10.7-6.3 0-11.5 4.4-11.5 10.7 0 0-0.2 7.2 0 9.6 0.2 2.4 2.3 7.9 4.4 10l-1 5.2c0 0-17.3 7.4-22.3 10.5-2 1.2-2.6 7.6-1 9.2h62.7C83 76 82.3 69.6 80.3 68.4z" fill="#6b7280" data-fill-palette-color="accent"></path></svg></g></svg></g></svg></g></svg></g><g id="text-0"><path d="M30.256 91.47l-6.504 17.973-19.347-7.002 7.409-20.471 3.152 1.14-5.836 16.128 4.546 1.645 4.455-12.312 3.258 1.179-4.455 12.312 5.228 1.892 5.882-16.252 3.273-0.304c0.09 0.032 0.066 0.357-0.07 0.974-0.136 0.617-0.467 1.65-0.991 3.098z" fill="#6b7280" data-fill-palette-color="accent"></path><path d="M39.755 75.044l-2.984 4.727-17.11-2.267 2.619-4.149 10.311 1.76 2.621 0.578 0.191-0.303-1.65-2.116-5.985-8.613 2.543-4.028 1.506 1.616z" fill="#6b7280" data-fill-palette-color="accent"></path><path d="M53.62 57.815l-4.735 5.198c-0.785 0.861-1.501 1.421-2.15 1.678-0.648 0.267-1.236 0.34-1.763 0.22-0.526-0.111-0.996-0.318-1.411-0.622-0.424-0.303-0.79-0.595-1.097-0.875v0l-4.972-4.529c-0.257-0.234-0.551-0.543-0.882-0.928-0.331-0.375-0.586-0.829-0.765-1.361-0.184-0.527-0.181-1.137 0.008-1.831 0.19-0.694 0.67-1.464 1.441-2.31v0l5.065-5.561c1.037-1.138 1.96-1.934 2.769-2.387 0.804-0.447 1.567-0.587 2.288-0.417 0.727 0.174 1.496 0.63 2.307 1.368v0l3.831 3.49-4.123 4.526c-1.413 1.552-2.6 2.784-3.561 3.697-0.951 0.913-1.586 1.523-1.904 1.832v0l1.428 1.301c0.676 0.644 1.398 0.545 2.164-0.296v0l1.205-1.323c0.849-0.932 1.662-1.855 2.439-2.769 0.787-0.915 1.498-1.76 2.132-2.538 0.629-0.782 1.13-1.413 1.503-1.893v0l2.628 0.5c0.534 0.486-0.748 2.43-3.845 5.83zM40.316 55.679l1.663 1.514 6.483-7.118-1.662-1.514c-0.343-0.312-0.619-0.49-0.828-0.533-0.21-0.053-0.507 0.096-0.891 0.446-0.379 0.346-0.984 0.974-1.815 1.887v0l-2.856 3.135c-0.753 0.826-0.784 1.554-0.094 2.183z" fill="#6b7280" data-fill-palette-color="accent"></path><path d="M65.394 47.293l-3.425 2.555-9.376-12.567 2.302-1.717 1.538-0.28c0.676-0.734 1.525-1.567 2.547-2.5 1.018-0.938 2.236-1.936 3.657-2.996v0l1.409-1.051c0.934-0.697 1.75-1.102 2.448-1.215 0.704-0.117 1.308-0.058 1.814 0.177 0.506 0.234 0.933 0.532 1.28 0.894 0.351 0.367 0.63 0.69 0.838 0.969v0l6.699 8.978-3.425 2.555-6.741-9.036c-0.558-0.748-1.288-0.786-2.19-0.113v0l-6.111 4.559c-0.355 0.265-0.56 0.469-0.615 0.612-0.055 0.143 0.024 0.356 0.236 0.641v0z" fill="#6b7280" data-fill-palette-color="accent"></path><path d="M88.272 32.975l-0.971 0.481c-1.588 0.786-2.841 0.989-3.76 0.608-0.916-0.375-1.705-1.231-2.367-2.569v0l-3.639-7.345-2.573 1.274-1.334-2.692 1.319-0.654c0.397-0.197 0.652-0.403 0.766-0.618 0.123-0.213 0.13-0.528 0.021-0.946v0l-1.028-3.666 3.196-1.583 2.128 4.296 6.521-3.23 1.334 2.692-6.521 3.23 3.652 7.373c0.26 0.525 0.556 0.808 0.888 0.849 0.335 0.047 0.753-0.054 1.254-0.301v0l4.423-2.191 1.491 2.227c-0.403 0.276-1.039 0.674-1.906 1.195-0.861 0.518-1.826 1.041-2.894 1.57z" fill="#6b7280" data-fill-palette-color="accent"></path><path d="M122.546 22.686l-11.378 2.364c-1.548 0.322-2.703 0.489-3.466 0.501-0.762 0.019-1.161-0.061-1.199-0.242v0l0.752-3.267c0.545-0.023 1.87-0.211 3.975-0.564 2.111-0.355 4.995-0.913 8.651-1.673v0l0.65-0.135c0.981-0.204 1.641-0.525 1.982-0.965 0.334-0.438 0.412-1.081 0.236-1.928v0l-0.142-0.68c-0.166-0.801-0.448-1.337-0.845-1.61-0.406-0.278-1.179-0.298-2.32-0.061v0l-7.956 1.653c-2.308 0.48-4.075 0.401-5.3-0.235-1.232-0.635-2.049-1.923-2.452-3.864v0l-0.114-0.551c-0.209-1.007-0.212-1.974-0.008-2.9 0.199-0.918 0.702-1.729 1.509-2.433 0.807-0.704 2.011-1.222 3.613-1.554v0l9.317-1.936c1.554-0.323 2.829-0.504 3.822-0.544 0.994-0.039 1.51 0.031 1.547 0.211v0l-0.091 3.026c-0.609 0.05-1.973 0.253-4.091 0.61-2.118 0.357-4.945 0.902-8.481 1.636v0l-0.387 0.049c-1.054 0.219-1.718 0.576-1.99 1.072-0.278 0.503-0.365 1.074-0.26 1.714v0l0.123 0.59c0.157 0.754 0.487 1.273 0.992 1.558 0.499 0.293 1.239 0.338 2.22 0.134v0l7.615-1.582c1.461-0.304 2.736-0.415 3.824-0.336 1.09 0.087 1.99 0.467 2.701 1.141 0.711 0.674 1.225 1.774 1.542 3.302v0l0.114 0.55c0.356 1.715 0.203 3.187-0.46 4.418-0.655 1.236-2.07 2.079-4.245 2.531z" fill="#6b7280" data-fill-palette-color="accent"></path><path d="M144.966 21.519l-7.031-0.049c-1.165-0.008-2.06-0.168-2.685-0.478-0.632-0.304-1.079-0.692-1.341-1.164-0.269-0.465-0.429-0.954-0.481-1.465-0.058-0.518-0.085-0.985-0.082-1.401v0l0.046-6.725c0.002-0.347 0.036-0.773 0.101-1.277 0.058-0.497 0.225-0.99 0.501-1.479 0.269-0.489 0.725-0.894 1.368-1.217 0.643-0.323 1.536-0.48 2.681-0.472v0l4.865 0.034c2.916 0.02 4.987 0.11 6.213 0.268 1.225 0.158 1.838 0.319 1.836 0.482v0l-0.723 2.663c-0.654-0.052-1.481-0.112-2.483-0.181-1.001-0.061-2.081-0.113-3.239-0.155-1.151-0.049-2.275-0.077-3.372-0.085v0l-1.789-0.012c-1.117-0.008-1.679 0.455-1.686 1.389v0l-0.047 6.868c-0.027 0.933 0.529 1.404 1.666 1.412v0l1.789 0.012c1.261 0.009 2.491-0.003 3.69-0.036 1.206-0.026 2.31-0.062 3.312-0.11 1.002-0.054 1.806-0.103 2.413-0.146v0l1.385 2.289c-0.005 0.722-2.307 1.067-6.907 1.035z" fill="#6b7280" data-fill-palette-color="accent"></path><path d="M159.695 23.079l-4.196-0.804 4.27-22.275 4.196 0.804-1.449 7.559c0.998 0.004 2.186 0.069 3.564 0.194 1.379 0.119 2.938 0.345 4.678 0.678v0l1.726 0.331c1.144 0.219 1.994 0.549 2.548 0.988 0.561 0.441 0.925 0.927 1.094 1.459 0.169 0.532 0.236 1.048 0.203 1.548-0.035 0.507-0.085 0.931-0.15 1.272v0l-2.109 11.002-4.196-0.805 2.122-11.072c0.176-0.917-0.288-1.481-1.392-1.693v0l-7.489-1.435c-0.435-0.083-0.724-0.097-0.866-0.041-0.143 0.056-0.247 0.258-0.314 0.606v0z" fill="#6b7280" data-fill-palette-color="accent"></path><path d="M189.343 31.965l-6.512-2.655c-1.079-0.44-1.851-0.92-2.315-1.44-0.474-0.517-0.745-1.043-0.814-1.579-0.077-0.532-0.045-1.045 0.098-1.539 0.139-0.503 0.287-0.946 0.443-1.331v0l2.539-6.228c0.131-0.322 0.32-0.705 0.568-1.148 0.238-0.44 0.576-0.836 1.013-1.187 0.431-0.354 1.005-0.561 1.722-0.623 0.717-0.061 1.605 0.124 2.665 0.557v0l6.966 2.84c1.426 0.581 2.491 1.174 3.194 1.776 0.697 0.601 1.091 1.269 1.181 2.005 0.087 0.742-0.076 1.621-0.49 2.637v0l-1.957 4.798-5.669-2.311c-1.943-0.792-3.509-1.482-4.697-2.069-1.184-0.579-1.976-0.964-2.376-1.157v0l-0.73 1.789c-0.371 0.857-0.03 1.5 1.024 1.929v0l1.656 0.676c1.167 0.476 2.314 0.921 3.44 1.336 1.13 0.424 2.169 0.799 3.117 1.127 0.951 0.321 1.716 0.574 2.295 0.759v0l0.436 2.639c-0.273 0.669-2.539 0.135-6.797-1.601zM186.765 18.74l-0.849 2.082 8.916 3.635 0.849-2.082c0.175-0.429 0.247-0.749 0.215-0.961-0.023-0.215-0.265-0.443-0.726-0.683-0.455-0.237-1.254-0.588-2.396-1.054v0l-3.928-1.601c-1.035-0.422-1.728-0.201-2.081 0.664z" fill="#6b7280" data-fill-palette-color="accent"></path><path d="M204.747 40.346l-1.465-0.954c-0.976-0.636-1.643-1.254-2.001-1.853-0.367-0.597-0.534-1.165-0.499-1.704 0.025-0.537 0.154-1.034 0.386-1.493 0.231-0.467 0.46-0.875 0.688-1.223v0l3.672-5.635c0.19-0.291 0.448-0.631 0.774-1.02 0.317-0.387 0.724-0.712 1.22-0.974 0.49-0.266 1.093-0.361 1.809-0.285 0.715 0.076 1.552 0.426 2.511 1.051v0l1.499 0.976c1.798 1.172 3.226 2.151 4.283 2.938 1.063 0.79 1.862 1.417 2.398 1.88v0l3.767-5.78 3.571 2.327-12.115 18.59-2.406-1.568-0.76-1.324c-0.908-0.404-1.981-0.917-3.219-1.537-1.235-0.626-2.606-1.43-4.113-2.412zM206.036 37.6v0l6.363 4.146c0.411 0.268 0.699 0.382 0.862 0.342 0.166-0.03 0.375-0.239 0.629-0.627v0l4.57-7.013c-0.646-0.47-1.46-1.061-2.443-1.775-0.983-0.714-2.051-1.446-3.203-2.198v0l-1.499-0.976c-0.936-0.61-1.659-0.524-2.169 0.258v0l-3.75 5.754c-0.51 0.782-0.296 1.478 0.64 2.089z" fill="#6b7280" data-fill-palette-color="accent"></path><path d="M223.998 55.525l-1.278-1.252c-0.813-0.796-1.343-1.531-1.591-2.202-0.248-0.662-0.302-1.255-0.162-1.777 0.134-0.517 0.359-0.979 0.672-1.387 0.319-0.413 0.623-0.768 0.915-1.065v0l7.84-8.001 3.051 2.99-7.89 8.053c-0.372 0.351-0.503 0.728-0.393 1.131 0.11 0.404 0.316 0.753 0.618 1.049v0l4.949 4.85c0.365 0.358 0.615 0.536 0.75 0.535 0.13-0.006 0.374-0.192 0.732-0.557v0l8.133-8.301 3.052 2.99-10.974 11.199-2.051-2.01-0.463-1.426c-0.796-0.522-1.694-1.178-2.694-1.968-1.01-0.79-2.082-1.74-3.216-2.851z" fill="#6b7280" data-fill-palette-color="accent"></path><path d="M238.682 72.073l-2.591-3.384 15.395-11.787 2.006-1.987 2.809 3.668z" fill="#6b7280" data-fill-palette-color="accent"></path><path d="M247.272 86.813l-3.434-6.137c-0.569-1.017-0.873-1.874-0.911-2.57-0.048-0.699 0.069-1.28 0.349-1.742 0.271-0.464 0.617-0.845 1.036-1.141 0.422-0.306 0.814-0.561 1.177-0.764v0l5.869-3.284c0.303-0.17 0.69-0.351 1.16-0.544 0.461-0.195 0.972-0.294 1.533-0.296 0.558-0.008 1.136 0.188 1.734 0.588 0.598 0.399 1.177 1.098 1.736 2.097v0l3.673 6.565c0.752 1.344 1.215 2.471 1.389 3.381 0.17 0.904 0.061 1.672-0.328 2.303-0.395 0.635-1.07 1.22-2.028 1.756v0l-4.522 2.53-2.99-5.343c-1.025-1.831-1.818-3.347-2.38-4.547-0.565-1.191-0.944-1.986-1.136-2.386v0l-1.686 0.943c-0.825 0.438-0.959 1.154-0.403 2.146v0l0.873 1.561c0.616 1.1 1.234 2.163 1.855 3.19 0.619 1.036 1.196 1.978 1.733 2.825 0.543 0.844 0.983 1.519 1.321 2.026v0l-1.306 2.335c-0.63 0.353-2.068-1.478-4.314-5.492zM253.507 74.868l-1.962 1.098 4.701 8.402 1.962-1.098c0.404-0.226 0.66-0.432 0.768-0.617 0.117-0.182 0.069-0.511-0.142-0.986-0.208-0.469-0.613-1.242-1.215-2.318v0l-2.071-3.702c-0.546-0.975-1.226-1.235-2.041-0.779z" fill="#6b7280" data-fill-palette-color="accent"></path><path d="M253.66 101.391l-1.402-4.035 14.811-5.146 0.943 2.713-0.221 1.484c0.502 0.468 0.958 1.002 1.368 1.602 0.404 0.603 0.782 1.409 1.133 2.42v0c0.559 1.609 0.836 2.977 0.831 4.104 0.001 1.125-0.031 1.883-0.098 2.274v0l-3.279-0.159c0.043-0.311 0.063-0.805 0.059-1.482 0.002-0.679-0.052-1.457-0.162-2.335-0.102-0.874-0.321-1.796-0.659-2.768v0l-0.128-0.367c-0.367-1.056-0.815-1.672-1.345-1.848-0.528-0.17-1.282-0.099-2.263 0.213v0z" fill="#6b7280" data-fill-palette-color="accent"></path><path d="M15.513 199.657l-6.505-17.972 19.347-7.002 7.409 20.471-3.152 1.141-5.837-16.127-4.546 1.645 4.456 12.311-3.258 1.18-4.456-12.312-5.228 1.892 5.881 16.252-2.32 2.329c-0.09 0.032-0.28-0.232-0.57-0.794-0.29-0.562-0.697-1.566-1.221-3.014z" fill="#6b7280" data-fill-palette-color="accent"></path><path d="M26.497 219.117l-2.985-4.728 9.407-14.471 2.619 4.149-6.024 8.552-1.649 2.117 0.191 0.303 2.62-0.579 10.35-1.698 2.543 4.027-2.107 0.665z" fill="#6b7280" data-fill-palette-color="accent"></path><path d="M42.029 238.535l-4.735-5.199c-0.785-0.861-1.275-1.627-1.471-2.297-0.205-0.67-0.223-1.262-0.054-1.775 0.159-0.514 0.409-0.962 0.75-1.347 0.342-0.394 0.666-0.731 0.973-1.011v0l4.972-4.529c0.257-0.234 0.592-0.498 1.007-0.792 0.404-0.295 0.88-0.506 1.426-0.635 0.542-0.134 1.149-0.074 1.822 0.179 0.673 0.253 1.395 0.803 2.166 1.649v0l5.065 5.562c1.037 1.138 1.743 2.131 2.119 2.978 0.371 0.842 0.438 1.615 0.203 2.317-0.24 0.707-0.766 1.431-1.577 2.17v0l-3.831 3.489-4.123-4.526c-1.413-1.552-2.53-2.848-3.349-3.889-0.82-1.032-1.369-1.721-1.648-2.067v0l-1.428 1.301c-0.704 0.614-0.673 1.341 0.094 2.182v0l1.204 1.322c0.849 0.932 1.692 1.827 2.53 2.687 0.837 0.869 1.613 1.655 2.328 2.359 0.72 0.699 1.302 1.257 1.746 1.673v0l-0.742 2.57c-0.534 0.486-2.35-0.971-5.447-4.371zM45.394 225.488l-1.662 1.514 6.483 7.118 1.662-1.514c0.343-0.312 0.545-0.57 0.608-0.775 0.072-0.204-0.048-0.514-0.362-0.929-0.309-0.41-0.879-1.071-1.709-1.982v0l-2.856-3.136c-0.753-0.826-1.474-0.925-2.164-0.296z" fill="#6b7280" data-fill-palette-color="accent"></path><path d="M56.017 251.065l-3.424-2.555 9.376-12.566 2.302 1.717 0.707 1.395c0.896 0.439 1.937 1.016 3.121 1.729 1.189 0.708 2.493 1.592 3.914 2.652v0l1.409 1.051c0.934 0.697 1.554 1.364 1.861 2.001 0.312 0.641 0.428 1.238 0.348 1.79-0.08 0.552-0.245 1.046-0.494 1.481-0.252 0.441-0.482 0.8-0.69 1.079v0l-6.699 8.979-3.424-2.555 6.742-9.036c0.558-0.748 0.387-1.458-0.515-2.131v0l-6.111-4.559c-0.355-0.265-0.609-0.403-0.761-0.416-0.153-0.012-0.335 0.124-0.547 0.409v0z" fill="#6b7280" data-fill-palette-color="accent"></path><path d="M81.312 266.866l-0.971-0.481c-1.588-0.786-2.508-1.661-2.761-2.622-0.257-0.956-0.054-2.102 0.609-3.44v0l3.638-7.345-2.574-1.275 1.334-2.693 1.319 0.653c0.397 0.197 0.716 0.275 0.956 0.234 0.244-0.031 0.499-0.217 0.766-0.556v0l2.292-3.039 3.197 1.584-2.128 4.295 6.521 3.23-1.333 2.693-6.522-3.23-3.652 7.373c-0.26 0.525-0.306 0.932-0.137 1.221 0.166 0.295 0.499 0.566 1 0.814v0l4.424 2.191-0.869 2.536c-0.464-0.154-1.166-0.418-2.105-0.792-0.934-0.371-1.935-0.822-3.004-1.351z" fill="#6b7280" data-fill-palette-color="accent"></path><path d="M119.357 278.457l-11.378-2.364c-1.548-0.322-2.674-0.629-3.379-0.922-0.706-0.286-1.04-0.519-1.003-0.699v0l1.99-2.697c0.509 0.196 1.799 0.551 3.871 1.065 2.078 0.515 4.945 1.153 8.601 1.913v0l0.651 0.135c0.981 0.204 1.715 0.172 2.202-0.096 0.48-0.269 0.809-0.827 0.984-1.675v0l0.142-0.68c0.166-0.801 0.121-1.405-0.135-1.813-0.261-0.416-0.963-0.743-2.104-0.98v0l-7.955-1.653c-2.308-0.48-3.897-1.255-4.768-2.327-0.877-1.073-1.113-2.58-0.71-4.521v0l0.115-0.551c0.209-1.007 0.592-1.895 1.148-2.663 0.548-0.763 1.333-1.306 2.353-1.63 1.021-0.324 2.332-0.319 3.933 0.013v0l9.317 1.936c1.554 0.323 2.795 0.664 3.723 1.024 0.927 0.36 1.372 0.63 1.335 0.809v0l-1.29 2.739c-0.579-0.197-1.91-0.553-3.995-1.07-2.085-0.517-4.895-1.142-8.431-1.877v0l-0.374-0.109c-1.054-0.219-1.805-0.156-2.252 0.19-0.456 0.351-0.763 0.84-0.921 1.468v0l-0.123 0.59c-0.157 0.754-0.06 1.362 0.289 1.825 0.341 0.468 1.002 0.803 1.983 1.007v0l7.616 1.582c1.461 0.304 2.675 0.709 3.641 1.216 0.965 0.514 1.639 1.221 2.023 2.122 0.384 0.901 0.417 2.115 0.099 3.643v0l-0.115 0.55c-0.356 1.715-1.083 3.004-2.181 3.869-1.093 0.873-2.727 1.083-4.902 0.631z" fill="#6b7280" data-fill-palette-color="accent"></path><path d="M145.075 279.951l-7.032 0.049c-1.165 0.008-2.062-0.139-2.691-0.442-0.636-0.295-1.088-0.677-1.357-1.145-0.276-0.461-0.443-0.948-0.501-1.458-0.065-0.517-0.099-0.984-0.102-1.4v0l-0.046-6.725c-0.002-0.347 0.025-0.774 0.083-1.278 0.051-0.498 0.211-0.993 0.48-1.486 0.262-0.492 0.713-0.904 1.351-1.236 0.638-0.332 1.53-0.501 2.675-0.509v0l4.865-0.034c2.916-0.02 4.988 0.04 6.215 0.182 1.228 0.141 1.842 0.294 1.843 0.458v0l-0.686 2.672c-0.654-0.043-1.483-0.092-2.485-0.146-1.002-0.048-2.082-0.084-3.241-0.111-1.152-0.033-2.276-0.046-3.373-0.038v0l-1.789 0.013c-1.117 0.008-1.673 0.478-1.666 1.412v0l0.047 6.868c-0.014 0.934 0.548 1.397 1.686 1.389v0l1.789-0.013c1.261-0.009 2.49-0.038 3.689-0.087 1.206-0.042 2.309-0.094 3.31-0.156 1.001-0.068 1.805-0.128 2.411-0.18v0l1.416 2.27c0.005 0.722-2.292 1.099-6.891 1.131z" fill="#6b7280" data-fill-palette-color="accent"></path><path d="M162.647 278.111l-4.196 0.804-4.27-22.274 4.196-0.805 1.449 7.559c0.929-0.365 2.057-0.745 3.383-1.137 1.325-0.4 2.857-0.766 4.597-1.1v0l1.727-0.331c1.144-0.219 2.055-0.227 2.732-0.024 0.684 0.202 1.203 0.519 1.556 0.95 0.353 0.432 0.607 0.886 0.761 1.363 0.155 0.484 0.265 0.896 0.331 1.238v0l2.109 11.002-4.196 0.804-2.123-11.072c-0.176-0.917-0.816-1.269-1.92-1.058v0l-7.488 1.436c-0.435 0.083-0.708 0.177-0.82 0.282-0.112 0.105-0.134 0.331-0.068 0.679v0z" fill="#6b7280" data-fill-palette-color="accent"></path><path d="M195.262 268.345l-6.512 2.655c-1.079 0.44-1.967 0.636-2.662 0.589-0.7-0.038-1.262-0.225-1.686-0.56-0.427-0.326-0.763-0.716-1.006-1.169-0.252-0.456-0.457-0.877-0.614-1.261v0l-2.539-6.228c-0.131-0.322-0.264-0.728-0.397-1.218-0.137-0.481-0.172-1-0.105-1.558 0.061-0.555 0.326-1.104 0.796-1.649 0.47-0.545 1.234-1.033 2.294-1.465v0l6.966-2.84c1.426-0.581 2.601-0.902 3.526-0.963 0.918-0.058 1.667 0.145 2.246 0.608 0.581 0.469 1.079 1.212 1.493 2.228v0l1.956 4.799-5.669 2.311c-1.943 0.792-3.545 1.394-4.805 1.804-1.251 0.414-2.087 0.693-2.508 0.835v0l0.73 1.789c0.333 0.872 1.027 1.093 2.08 0.664v0l1.657-0.676c1.167-0.476 2.298-0.959 3.393-1.449 1.104-0.487 2.109-0.945 3.017-1.374 0.904-0.435 1.628-0.789 2.171-1.062v0l2.158 1.582c0.273 0.669-1.721 1.871-5.98 3.608zM184.173 260.692l0.848 2.082 8.916-3.635-0.849-2.082c-0.175-0.429-0.348-0.708-0.518-0.838-0.167-0.138-0.499-0.131-0.996 0.02-0.491 0.149-1.308 0.456-2.45 0.922v0l-3.928 1.601c-1.035 0.422-1.376 1.065-1.024 1.93z" fill="#6b7280" data-fill-palette-color="accent"></path><path d="M213.307 258.581l-1.464 0.955c-0.976 0.636-1.811 0.997-2.504 1.082-0.695 0.095-1.282 0.018-1.761-0.231-0.481-0.239-0.884-0.558-1.209-0.957-0.334-0.4-0.615-0.775-0.841-1.123v0l-3.672-5.634c-0.19-0.291-0.397-0.665-0.62-1.121-0.226-0.447-0.359-0.95-0.398-1.51-0.045-0.556 0.111-1.146 0.469-1.769 0.358-0.624 1.017-1.248 1.976-1.873v0l1.498-0.977c1.798-1.172 3.271-2.083 4.417-2.732 1.152-0.653 2.048-1.131 2.689-1.435v0l-3.767-5.78 3.571-2.327 12.114 18.591-2.406 1.568-1.518 0.16c-0.737 0.667-1.639 1.442-2.706 2.325-1.071 0.877-2.361 1.807-3.868 2.788zM211.315 256.293v0l6.363-4.146c0.411-0.268 0.632-0.485 0.661-0.651 0.04-0.164-0.067-0.44-0.32-0.829v0l-4.57-7.013c-0.69 0.401-1.56 0.907-2.61 1.518-1.05 0.611-2.151 1.292-3.304 2.043v0l-1.499 0.977c-0.936 0.61-1.15 1.306-0.64 2.088v0l3.75 5.755c0.51 0.782 1.233 0.868 2.169 0.258z" fill="#6b7280" data-fill-palette-color="accent"></path><path d="M234.971 241.465l-1.277 1.252c-0.813 0.796-1.558 1.312-2.235 1.546-0.667 0.234-1.26 0.276-1.779 0.126-0.514-0.145-0.972-0.378-1.373-0.7-0.406-0.327-0.755-0.639-1.046-0.936v0l-7.84-8.001 3.051-2.991 7.891 8.053c0.343 0.379 0.718 0.518 1.123 0.416 0.406-0.102 0.76-0.301 1.061-0.596v0l4.95-4.85c0.365-0.358 0.548-0.604 0.549-0.739-0.004-0.13-0.184-0.378-0.541-0.743v0l-8.134-8.301 3.052-2.99 10.973 11.199-2.051 2.01-1.436 0.434c-0.538 0.785-1.212 1.669-2.022 2.653-0.81 0.994-1.782 2.047-2.916 3.158z" fill="#6b7280" data-fill-palette-color="accent"></path><path d="M251.132 223.25l-2.591 3.384-15.395-11.786-2.441-1.419 2.808-3.668z" fill="#6b7280" data-fill-palette-color="accent"></path><path d="M260.955 206.635l-3.434 6.136c-0.569 1.017-1.14 1.724-1.714 2.121-0.571 0.407-1.127 0.611-1.666 0.614-0.537 0.012-1.042-0.084-1.515-0.286-0.482-0.199-0.904-0.401-1.267-0.603v0l-5.869-3.284c-0.303-0.17-0.66-0.404-1.07-0.704-0.407-0.29-0.759-0.674-1.054-1.152-0.298-0.471-0.434-1.067-0.407-1.785 0.027-0.719 0.32-1.577 0.88-2.577v0l3.673-6.565c0.752-1.344 1.47-2.328 2.155-2.951 0.682-0.618 1.393-0.927 2.135-0.926 0.747 0.004 1.599 0.274 2.556 0.81v0l4.523 2.53-2.99 5.343c-1.025 1.831-1.902 3.301-2.63 4.408-0.719 1.104-1.199 1.843-1.439 2.216v0l1.685 0.943c0.805 0.474 1.485 0.214 2.041-0.779v0l0.873-1.561c0.616-1.1 1.198-2.183 1.748-3.249 0.559-1.069 1.06-2.054 1.502-2.955 0.436-0.904 0.781-1.632 1.035-2.185v0l2.672-0.109c0.63 0.353-0.177 2.536-2.423 6.55zM247.513 207.57l1.963 1.098 4.701-8.403-1.962-1.098c-0.404-0.226-0.713-0.337-0.927-0.331-0.216-0.004-0.472 0.208-0.767 0.637-0.291 0.423-0.738 1.172-1.34 2.248v0l-2.071 3.702c-0.546 0.975-0.411 1.691 0.403 2.147z" fill="#6b7280" data-fill-palette-color="accent"></path><path d="M268.471 189.545l-1.402 4.036-14.81-5.145 0.942-2.713 1.093-1.027c-0.104-0.678-0.13-1.38-0.08-2.106 0.057-0.723 0.26-1.59 0.611-2.6v0c0.559-1.609 1.19-2.854 1.893-3.736 0.696-0.883 1.192-1.458 1.486-1.723v0l2.475 2.158c-0.227 0.217-0.548 0.592-0.965 1.125-0.423 0.531-0.863 1.175-1.32 1.933-0.462 0.748-0.862 1.609-1.2 2.58v0l-0.127 0.367c-0.367 1.056-0.397 1.817-0.091 2.284 0.309 0.461 0.945 0.873 1.908 1.237v0z" fill="#6b7280" data-fill-palette-color="accent"></path><path d="M2.55 142.896c0-4.785 3.879-8.664 8.664-8.664 4.785 0 8.664 3.879 8.664 8.664 0 4.785-3.879 8.664-8.664 8.664-4.785 0-8.664-3.879-8.664-8.664z" fill="#6b7280" data-fill-palette-color="accent"></path><path d="M260.122 142.896c0-4.785 3.879-8.664 8.664-8.664 4.785 0 8.664 3.879 8.664 8.664 0 4.785-3.879 8.664-8.664 8.664-4.785 0-8.664-3.879-8.664-8.664z" fill="#6b7280" data-fill-palette-color="accent"></path></g><g id="text-1"></g></svg></g><defs></defs></svg><rect width="280" height="280" fill="none" stroke="none" visibility="hidden"></rect></g></svg></g></svg>